<svg width="28" height="28" viewBox="0 0 28 28" fill="none" xmlns="http://www.w3.org/2000/svg">
<path d="M3.5 20.125V24.5H7.875L20.7783 11.5967L16.4033 7.22168L3.5 20.125ZM24.1617 8.21335C24.2698 8.10541 24.3556 7.97721 24.4142 7.83607C24.4727 7.69494 24.5028 7.54364 24.5028 7.39085C24.5028 7.23805 24.4727 7.08675 24.4142 6.94562C24.3556 6.80448 24.2698 6.67628 24.1617 6.56835L21.4317 3.83835C21.3237 3.73019 21.1955 3.64439 21.0544 3.58584C20.9133 3.5273 20.762 3.49716 20.6092 3.49716C20.4564 3.49716 20.3051 3.5273 20.1639 3.58584C20.0228 3.64439 19.8946 3.73019 19.7867 3.83835L17.6517 5.97335L22.0267 10.3483L24.1617 8.21335Z" fill="#9F9C9C"/>
</svg>
