<svg width="41" height="40" viewBox="0 0 41 40" fill="none" xmlns="http://www.w3.org/2000/svg">
<path d="M12.7662 17.7303L19.6238 6.66449C19.7233 6.52298 19.8547 6.40762 20.0071 6.32802C20.1596 6.24842 20.3285 6.20689 20.5 6.20689C20.6715 6.20689 20.8405 6.24842 20.9929 6.32802C21.1453 6.40762 21.2767 6.52298 21.3762 6.66449L28.2648 17.7838C29.221 19.3481 29.7541 21.1399 29.8103 22.9791C29.8103 25.4814 28.8294 27.8811 27.0834 29.6504C25.3374 31.4198 22.9693 32.4138 20.5 32.4138C18.0307 32.4138 15.6626 31.4198 13.9166 29.6504C12.1706 27.8811 11.1897 25.4814 11.1897 22.9791C11.249 21.1192 11.7929 19.3083 12.7662 17.7303ZM20.5 30.3172C22.4197 30.3144 24.26 29.5404 25.6174 28.1649C26.9748 26.7893 27.7386 24.9244 27.7414 22.9791C27.6853 21.5134 27.2509 20.0881 26.4814 18.8457L25.5141 17.2837L15.0928 27.8443C15.7697 28.6212 16.6019 29.2435 17.5341 29.67C18.4662 30.0965 19.4772 30.3164 20.5 30.3172Z" fill="#241F13"/>
</svg>
