<svg width="28" height="28" viewBox="0 0 28 28" fill="none" xmlns="http://www.w3.org/2000/svg">
<path d="M14 18.375C15.1603 18.375 16.2731 17.9141 17.0936 17.0936C17.9141 16.2731 18.375 15.1603 18.375 14C18.375 12.8397 17.9141 11.7269 17.0936 10.9064C16.2731 10.0859 15.1603 9.625 14 9.625C12.8397 9.625 11.7269 10.0859 10.9064 10.9064C10.0859 11.7269 9.625 12.8397 9.625 14C9.625 15.1603 10.0859 16.2731 10.9064 17.0936C11.7269 17.9141 12.8397 18.375 14 18.375ZM15.3125 3.0625C15.3125 2.7144 15.1742 2.38056 14.9281 2.13442C14.6819 1.88828 14.3481 1.75 14 1.75C13.6519 1.75 13.3181 1.88828 13.0719 2.13442C12.8258 2.38056 12.6875 2.7144 12.6875 3.0625V5.348C10.841 5.62795 9.13254 6.49136 7.81195 7.81195C6.49136 9.13254 5.62795 10.841 5.348 12.6875H3.0625C2.7144 12.6875 2.38056 12.8258 2.13442 13.0719C1.88828 13.3181 1.75 13.6519 1.75 14C1.75 14.3481 1.88828 14.6819 2.13442 14.9281C2.38056 15.1742 2.7144 15.3125 3.0625 15.3125H5.348C5.62795 17.159 6.49136 18.8675 7.81195 20.1881C9.13254 21.5086 10.841 22.372 12.6875 22.652V24.9375C12.6875 25.2856 12.8258 25.6194 13.0719 25.8656C13.3181 26.1117 13.6519 26.25 14 26.25C14.3481 26.25 14.6819 26.1117 14.9281 25.8656C15.1742 25.6194 15.3125 25.2856 15.3125 24.9375V22.652C17.159 22.372 18.8675 21.5086 20.1881 20.1881C21.5086 18.8675 22.372 17.159 22.652 15.3125H24.9375C25.2856 15.3125 25.6194 15.1742 25.8656 14.9281C26.1117 14.6819 26.25 14.3481 26.25 14C26.25 13.6519 26.1117 13.3181 25.8656 13.0719C25.6194 12.8258 25.2856 12.6875 24.9375 12.6875H22.652C22.372 10.841 21.5086 9.13254 20.1881 7.81195C18.8675 6.49136 17.159 5.62795 15.3125 5.348V3.0625ZM14 20.125C12.3755 20.125 10.8176 19.4797 9.66897 18.331C8.52031 17.1824 7.875 15.6245 7.875 14C7.875 12.3755 8.52031 10.8176 9.66897 9.66897C10.8176 8.52031 12.3755 7.875 14 7.875C15.6245 7.875 17.1824 8.52031 18.331 9.66897C19.4797 10.8176 20.125 12.3755 20.125 14C20.125 15.6245 19.4797 17.1824 18.331 18.331C17.1824 19.4797 15.6245 20.125 14 20.125Z" fill="black"/>
</svg>
