<svg width="41" height="40" viewBox="0 0 41 40" fill="none" xmlns="http://www.w3.org/2000/svg">
<path d="M15.5 21.6667V8.33333C15.5 7.00725 16.0268 5.73548 16.9645 4.7978C17.9022 3.86012 19.1739 3.33333 20.5 3.33333C21.8261 3.33333 23.0979 3.86012 24.0355 4.7978C24.9732 5.73548 25.5 7.00725 25.5 8.33333V21.6667C26.8992 22.7161 27.9328 24.1791 28.4543 25.8486C28.9758 27.5181 28.9588 29.3093 28.4057 30.9686C27.8526 32.6278 26.7915 34.071 25.3726 35.0937C23.9537 36.1164 22.249 36.6667 20.5 36.6667C18.751 36.6667 17.0463 36.1164 15.6274 35.0937C14.2085 34.071 13.1474 32.6278 12.5943 30.9686C12.0412 29.3093 12.0242 27.5181 12.5457 25.8486C13.0672 24.1791 14.1008 22.7161 15.5 21.6667ZM20.5 6.66667C20.058 6.66667 19.6341 6.84226 19.3215 7.15482C19.0089 7.46738 18.8333 7.8913 18.8333 8.33333V13.3333H22.1667V8.33333C22.1667 7.8913 21.9911 7.46738 21.6785 7.15482C21.366 6.84226 20.942 6.66667 20.5 6.66667Z" fill="#241F13"/>
</svg>
