<svg width="41" height="40" viewBox="0 0 41 40" fill="none" xmlns="http://www.w3.org/2000/svg">
<path d="M20.5 6.66667C20.1972 5.81489 19.669 5.06115 18.9719 4.48567C18.2747 3.91018 17.4345 3.53448 16.5408 3.39854C15.6471 3.2626 14.7332 3.37151 13.8964 3.71368C13.0597 4.05585 12.3313 4.61848 11.7889 5.34169C11.2465 6.0649 10.9103 6.92164 10.8161 7.82073C10.7219 8.71983 10.8733 9.62764 11.254 10.4476C11.6348 11.2675 12.2307 11.9688 12.9784 12.477C13.726 12.9852 14.5975 13.2811 15.5 13.3333H37.1667M32.1667 33.3333C31.8638 34.1851 31.3357 34.9388 30.6385 35.5143C29.9413 36.0898 29.1012 36.4655 28.2075 36.6015C27.3137 36.7374 26.3998 36.6285 25.5631 36.2863C24.7263 35.9442 23.998 35.3815 23.4556 34.6583C22.9132 33.9351 22.577 33.0784 22.4828 32.1793C22.3886 31.2802 22.5399 30.3724 22.9207 29.5524C23.3014 28.7325 23.8974 28.0312 24.645 27.523C25.3927 27.0148 26.2642 26.7189 27.1667 26.6667H37.1667M12.1667 26.6667C11.8638 27.5184 11.3357 28.2722 10.6385 28.8477C9.94135 29.4232 9.10119 29.7989 8.20745 29.9348C7.31372 30.0707 6.39985 29.9618 5.56309 29.6197C4.72633 29.2775 3.998 28.7149 3.45559 27.9916C2.91318 27.2684 2.57699 26.4117 2.4828 25.5126C2.38861 24.6135 2.53994 23.7057 2.92069 22.8858C3.30144 22.0659 3.89736 21.3645 4.64503 20.8563C5.39271 20.3482 6.26417 20.0522 7.16667 20H37.1667" stroke="black" stroke-width="3" stroke-linecap="round" stroke-linejoin="round"/>
</svg>
